<?xml version="1.0" encoding="UTF-8"?>
<svg width="30px" height="29px" viewBox="0 0 30 29" version="1.1" xmlns="http://www.w3.org/2000/svg" xmlns:xlink="http://www.w3.org/1999/xlink">
    <title>fb</title>
    <g id="Symbols" stroke="none" stroke-width="1" fill="none" fill-rule="evenodd">
        <g id="footer/desktop" transform="translate(-1135.000000, -105.000000)" fill="#FFFFFF" fill-rule="nonzero">
            <g id="Group-12" transform="translate(136.000000, 60.000000)">
                <g id="Social" transform="translate(997.000000, 0.000000)">
                    <g id="Regular" transform="translate(2.000000, 45.000000)">
                        <path d="M27.8125,0 L2.1875,0 C0.97937711,0 0,0.946731206 0,2.11458333 L0,26.8854167 C0,28.0532688 0.97937711,29 2.1875,29 L15.1875,29 C15.705267,29 16.125,28.5942581 16.125,28.09375 L16.125,17.8229167 L16.1164417,17.6999439 C16.0543637,17.2576026 15.6621197,16.9166667 15.1875,16.9166667 L12.375,16.9166667 L12.375,13.8958333 L15.1875,13.8958333 C15.705267,13.8958333 16.125,13.4900914 16.125,12.9895833 L16.125,11.70875 L16.1307051,11.4498199 C16.2709546,8.27326383 18.9793879,5.73958333 22.3,5.73958333 L24.25,5.738375 L24.25,8.76041667 L22.3,8.76041667 C21.4910897,8.76041667 20.7153103,9.07104375 20.1433243,9.62396351 C19.5713384,10.1768833 19.25,10.9268034 19.25,11.70875 L19.25,12.9895833 L19.2585583,13.1125561 C19.3206363,13.5548974 19.7128803,13.8958333 20.1875,13.8958333 L23.51125,13.8958333 L23.115,16.9166667 L20.1875,16.9166667 C19.669733,16.9166667 19.25,17.3224086 19.25,17.8229167 L19.25,28.09375 C19.25,28.5942581 19.669733,29 20.1875,29 L27.8125,29 C29.0206229,29 30,28.0532688 30,26.8854167 L30,2.11458333 C30,0.946731206 29.0206229,0 27.8125,0 Z M2.1875,1.8125 L27.8125,1.8125 C27.985089,1.8125 28.125,1.94774732 28.125,2.11458333 L28.125,26.8854167 L28.1167467,26.9546816 C28.0843585,27.0881346 27.9604334,27.1875 27.8125,27.1875 L21.12375,27.1875 L21.12375,18.7291667 L23.3875,18.7291667 C24.1754561,18.7346921 24.8478794,18.162684 24.9432285,17.3999764 L25.4175685,13.7801317 C25.4721194,13.3440871 25.3316154,12.9115655 25.0325459,12.5877729 L24.9145309,12.4730062 C24.6259783,12.2209602 24.2486247,12.0806112 23.8557226,12.083357 L21.12375,12.0833333 L21.125,11.70875 C21.125,11.4075083 21.2487943,11.1186046 21.4691495,10.9055945 C21.6895048,10.6925845 21.9883706,10.5729167 22.3,10.5729167 L24.5625,10.5729167 C25.4254449,10.5729167 26.125,9.89668009 26.125,9.0625 L26.125,5.4375 C26.125,4.60331991 25.4254449,3.92708333 24.5625,3.92708333 L22.3,3.92708333 L22.0112723,3.93199537 C17.6991107,4.07894488 14.25,7.50448234 14.25,11.70875 L14.24875,12.0833333 L12.0625,12.0833333 C11.1995551,12.0833333 10.5,12.7595699 10.5,13.59375 L10.5,17.21875 L10.508067,17.3731813 C10.5880826,18.1348181 11.2534891,18.7291667 12.0625,18.7291667 L14.25,18.7291667 L14.25,27.1875 L2.1875,27.1875 C2.01491102,27.1875 1.875,27.0522527 1.875,26.8854167 L1.875,2.11458333 C1.875,1.94774732 2.01491102,1.8125 2.1875,1.8125 Z" id="Shape"></path>
                    </g>
                </g>
            </g>
        </g>
    </g>
</svg>