<?xml version="1.0" encoding="UTF-8"?>
<svg width="30px" height="29px" viewBox="0 0 30 29" version="1.1" xmlns="http://www.w3.org/2000/svg" xmlns:xlink="http://www.w3.org/1999/xlink">
    <title>instagram</title>
    <g id="Symbols" stroke="none" stroke-width="1" fill="none" fill-rule="evenodd">
        <g id="footer/desktop" transform="translate(-1185.000000, -105.000000)" fill="#FFFFFF" fill-rule="nonzero">
            <g id="Group-12" transform="translate(136.000000, 60.000000)">
                <g id="Social" transform="translate(997.000000, 0.000000)">
                    <g id="Group-2" transform="translate(2.000000, 45.000000)">
                        <g id="Regular" transform="translate(50.000000, 0.000000)">
                            <path d="M21.5625,0 L8.4375,0 C3.77759742,0 0,3.65167751 0,8.15625 L0,20.84375 C0,25.3483225 3.77759742,29 8.4375,29 L21.5625,29 C26.2224026,29 30,25.3483225 30,20.84375 L30,8.15625 C30,3.65167751 26.2224026,0 21.5625,0 Z M8.4375,1.8125 L21.5625,1.8125 C25.1868687,1.8125 28.125,4.65269362 28.125,8.15625 L28.125,20.84375 C28.125,24.3473064 25.1868687,27.1875 21.5625,27.1875 L8.4375,27.1875 C4.81313133,27.1875 1.875,24.3473064 1.875,20.84375 L1.875,8.15625 C1.875,4.65269362 4.81313133,1.8125 8.4375,1.8125 Z" id="Rectangle-path"></path>
                            <path d="M15,7.55208333 C11.0304534,7.55208333 7.8125,10.6627716 7.8125,14.5 C7.8125,18.3372284 11.0304534,21.4479167 15,21.4479167 C18.9695466,21.4479167 22.1875,18.3372284 22.1875,14.5 C22.1875,10.6627716 18.9695466,7.55208333 15,7.55208333 Z M15,9.36458333 C17.9340127,9.36458333 20.3125,11.6637877 20.3125,14.5 C20.3125,17.3362123 17.9340127,19.6354167 15,19.6354167 C12.0659873,19.6354167 9.6875,17.3362123 9.6875,14.5 C9.6875,11.6637877 12.0659873,9.36458333 15,9.36458333 Z" id="Oval"></path>
                            <path d="M24.1875,5.31666667 C24.705267,5.31666667 25.125,5.72240861 25.125,6.22291667 C25.125,7.05709676 24.4254449,7.73333333 23.5625,7.73333333 C22.6995551,7.73333333 22,7.05709676 22,6.22291667 C22,5.72240861 22.419733,5.31666667 22.9375,5.31666667 C23.1532362,5.31666667 23.3519527,5.38710798 23.5103783,5.50549524 L23.5625,5.54866667 L23.6146217,5.50549524 C23.7413622,5.41078543 23.8938888,5.34676103 24.0602868,5.32493966 L24.1875,5.31666667 Z" id="Shape"></path>
                            <path d="M23.5625,4.7125 C24.4254449,4.7125 25.125,5.38873658 25.125,6.22291667 C25.125,6.72342472 24.705267,7.12916667 24.1875,7.12916667 C23.9717638,7.12916667 23.7730473,7.05872536 23.6146217,6.9403381 L23.5625,6.89595833 L23.5103783,6.9403381 C23.3836378,7.0350479 23.2311112,7.0990723 23.0647132,7.12089367 L22.9375,7.12916667 C22.419733,7.12916667 22,6.72342472 22,6.22291667 C22,5.38873658 22.6995551,4.7125 23.5625,4.7125 Z" id="Shape"></path>
                        </g>
                    </g>
                </g>
            </g>
        </g>
    </g>
</svg>