<?xml version="1.0" encoding="UTF-8"?>
<svg width="30px" height="27px" viewBox="0 0 30 27" version="1.1" xmlns="http://www.w3.org/2000/svg" xmlns:xlink="http://www.w3.org/1999/xlink">
    <title>linkedin</title>
    <g id="Symbols" stroke="none" stroke-width="1" fill="none" fill-rule="evenodd">
        <g id="footer/desktop" transform="translate(-1236.000000, -106.000000)" fill="#FFFFFF" fill-rule="nonzero">
            <g id="Group-12" transform="translate(136.000000, 60.000000)">
                <g id="Social" transform="translate(997.000000, 0.000000)">
                    <g id="Group-2" transform="translate(2.000000, 45.000000)">
                        <g id="Regular" transform="translate(101.000000, 1.000000)">
                            <path d="M7.07205331,8.68747253 C7.54647534,8.68747253 7.93855597,9.02233647 8.00060814,9.45679978 L8.00916285,9.57758242 L8.00916285,26.1098901 C8.00916285,26.5605181 7.65661739,26.9329343 7.19921352,26.9918743 L7.07205331,27 L0.999583507,27 C0.525161476,27 0.133080848,26.6651361 0.0710286747,26.2306727 L0.0624739692,26.1098901 L0.0624739692,9.57758242 C0.0624739692,9.12695448 0.415019427,8.7545382 0.872423294,8.69559818 L0.999583507,8.68747253 L7.07205331,8.68747253 Z M22.3531862,8.6756044 C26.9388347,8.6756044 29.8757704,11.9413733 29.9961524,17.302855 L30,17.6479121 L30,26.1098901 C30,26.5605181 29.6474545,26.9329343 29.1900507,26.9918743 L29.0628905,27 L22.3531862,27 C21.8787641,27 21.4866835,26.6651361 21.4246313,26.2306727 L21.4160766,26.1098901 L21.4160869,17.5013351 C21.4182459,17.0624812 21.2362182,16.640898 20.9102751,16.3298556 C20.625075,16.0576934 20.2502605,15.8897945 19.8514883,15.8520756 L19.7917534,15.8487033 L19.6793003,15.8558242 C18.8329517,15.8558242 18.1279979,16.4308452 17.9738406,17.1920187 L17.9504744,17.3466202 L17.9425239,17.5054945 L17.9425239,26.1098901 C17.9425239,26.5605181 17.5899785,26.9329343 17.1325746,26.9918743 L17.0054144,27 L10.6205748,27 C10.1461527,27 9.7540721,26.6651361 9.69201993,26.2306727 L9.68346522,26.1098901 L9.68346522,9.57758242 C9.68346522,9.12695448 10.0360107,8.7545382 10.4934145,8.69559818 L10.6205748,8.68747253 L17.0054144,8.68747253 C17.4798364,8.68747253 17.8719171,9.02233647 17.9339692,9.45679978 L17.9425239,9.57758242 L17.9425239,9.77815385 L18.0758511,9.7090006 C19.1319873,9.17845733 20.2885313,8.84267226 21.483724,8.72357494 L21.9336123,8.68911352 L22.3531862,8.6756044 Z M6.13494377,10.4676923 L1.93669304,10.4676923 L1.93669304,25.2197802 L6.13494377,25.2197802 L6.13494377,10.4676923 Z M22.360683,10.4546374 L22.0176599,10.4676923 C20.3997217,10.5589439 18.8526878,11.145442 17.610907,12.1439733 C17.03574,12.6064721 16.1710365,12.2654257 16.0767336,11.5876275 L16.0683049,11.4646154 L16.0683049,10.4676923 L11.5576843,10.4676923 L11.5576843,25.2185934 L16.0683049,25.2185934 L16.0683049,17.5054945 C16.0683049,15.749126 17.4581731,14.3010975 19.2502147,14.0995673 L19.4671269,14.0814269 L19.5093711,14.0791648 L19.5521309,14.0718631 L19.6792901,14.0637363 C20.6399163,14.0637263 21.5609536,14.427288 22.2386338,15.0739878 C22.8547066,15.6618967 23.2234905,16.4397472 23.2820857,17.2587183 L23.2902957,17.5054945 L23.2902957,25.2185934 L28.1257809,25.2185934 L28.1257809,17.6479121 C28.1257809,13.2277512 26.1270872,10.7121677 22.8709693,10.4743878 L22.6113085,10.4603548 L22.360683,10.4546374 Z M4.060808,0 L4.29070694,0.00778447595 C6.18947209,0.122260152 7.72738799,1.46632536 8.03893467,3.20559082 L8.07142806,3.42499698 L8.08788005,3.61859341 L8.11306129,3.73636022 L8.12161599,3.85714286 C8.12161599,5.98738404 6.30353033,7.71428571 4.060808,7.71428571 C1.81808567,7.71428571 0,5.98738404 0,3.85714286 C0,1.80035827 1.69486226,0.119576263 3.83037413,0.00610590364 L4.060808,0 Z M4.05331112,1.7801913 L3.87504607,1.7870803 C2.75773878,1.87374975 1.87421908,2.76744256 1.87421908,3.85714286 C1.87421908,5.0041958 2.85318828,5.93406593 4.060808,5.93406593 C5.14766574,5.93406593 6.04931657,5.18087112 6.21877816,4.19403057 L6.23990004,4.02448352 L6.23095833,3.97789991 L6.22240733,3.85711437 C6.22244374,2.77655028 5.35334318,1.88750748 4.24086955,1.78915877 L4.05331112,1.7801913 Z" id="Shape"></path>
                        </g>
                    </g>
                </g>
            </g>
        </g>
    </g>
</svg>